<svg width="320" height="96" viewBox="0 0 320 96" fill="none" xmlns="http://www.w3.org/2000/svg">
<g clip-path="url(#clip0_22106_11217)">
<path d="M50.0075 64.0422V51.0205C50.0075 47.7971 51.5056 46.1453 54.2925 46.1453C57.0472 46.1453 57.7721 47.6688 57.7721 51.0205V64.0422H64.9084V48.198C64.9084 42.6974 61.6544 39.5543 56.6444 39.5543C53.5676 39.5543 51.3123 40.6768 49.8303 43.0021V32.2095H43V64.0422H50.0075ZM69.4673 59.2473L65.4883 63.3687L68.4685 66.2874L72.3992 62.2942C74.5739 63.9139 77.0064 64.6677 79.8094 64.6677C87.2679 64.6677 92.7772 59.119 92.7772 52.1751C92.7772 49.08 91.7784 46.2576 89.9259 44.1087L93.3571 40.4844L90.2803 37.5336L86.7041 41.2541C84.5132 40.0033 82.3385 39.426 80.0349 39.426C76.3781 39.426 73.3013 40.6768 70.8688 43.1465C68.4363 45.6161 67.1637 48.6952 67.1637 52.0147C67.1637 54.5004 67.9369 56.8418 69.4673 59.2473ZM84.9643 48.9998C85.4637 49.946 85.6892 50.8761 85.6892 51.9185C85.6892 55.4626 83.3373 57.8681 79.9543 57.8681C79.0039 57.8681 78.1018 57.6436 77.103 57.1946L84.9643 48.9998ZM74.5256 54.1957C74.2517 53.2175 74.1228 52.3996 74.1228 51.7742C74.1228 48.6791 76.5553 46.2255 79.7771 46.2255C80.4537 46.2255 81.1303 46.3217 81.8069 46.5462L74.5256 54.1957ZM100.751 51.8704C100.751 48.5989 103.232 45.9529 106.76 45.9529C109.643 45.9529 112.221 48.4546 112.221 51.9506C112.221 55.3023 109.74 57.8681 106.567 57.8681C103.313 57.8681 100.751 55.2221 100.751 51.8704ZM111.899 61.5405C111.947 61.9414 111.947 62.3423 111.947 62.7433C111.947 66.4157 110.046 68.4363 106.889 68.4363C104.762 68.4363 103.313 67.4901 102.862 65.9666H94.9036C95.8057 70.9861 100.236 74.2095 106.647 74.2095C111.158 74.2095 114.605 72.7341 116.909 69.7834C118.81 67.3137 118.81 64.7639 118.81 61.5886V40.0033H111.947V42.6974C110.368 40.6768 108.194 39.6505 105.391 39.6505C102.41 39.6505 99.833 40.773 97.6261 42.9701C95.1936 45.3916 93.921 48.4706 93.921 51.9185C93.921 58.9105 98.8504 64.1866 105.358 64.1866C107.888 64.1705 109.917 63.3206 111.899 61.5405ZM122.402 64.0422H129.49V32.2095H122.402V64.0422ZM147.87 40.0033V53.0251C147.87 56.2484 146.421 57.9002 143.618 57.9002C140.863 57.9002 140.138 56.3767 140.138 53.0251V40.0033H132.953V55.8475C132.953 61.3481 136.256 64.4913 141.266 64.4913C144.391 64.4913 146.694 63.3206 148.225 60.8189V64.0422H154.862V40.0033H147.87ZM165.284 64.0422V51.0205C165.284 47.7971 166.783 46.1453 169.569 46.1453C172.324 46.1453 173.049 47.6688 173.049 51.0205V64.0422H180.185V48.198C180.185 42.6974 176.931 39.5543 171.921 39.5543C168.716 39.5543 166.46 40.8051 164.962 43.2267L165.059 40.0033H158.277V64.0422H165.284ZM189.174 51.8704C189.174 48.647 191.8 45.9208 195.183 45.9208C198.534 45.9208 201.095 48.5188 201.095 51.9666C201.095 55.2862 198.518 57.7879 195.441 57.7879C191.8 57.7719 189.174 55.2221 189.174 51.8704ZM201.063 64.0422H207.974V32.2095H200.837V42.6814C199.21 40.6287 196.955 39.6344 194.023 39.6344C190.946 39.6344 188.192 40.757 185.936 42.954C183.407 45.3756 182.054 48.4546 182.054 51.9025C182.054 55.6711 183.504 58.8945 186.307 61.3481C188.433 63.2244 190.962 64.1705 193.894 64.1705C196.794 64.1705 198.952 63.4008 201.079 61.3481L201.063 64.0422Z" fill="#EAA75E"/>
<path d="M270.912 52.0147C270.912 52.0308 270.912 52.0308 270.912 52.0308C270.912 55.3023 268.335 57.9483 265.177 57.9483C262.052 57.9483 259.442 55.3023 259.442 52.0308V52.0147H251.71C251.71 52.0308 251.71 52.0308 251.71 52.0308C251.71 55.3023 249.133 57.9483 245.975 57.9483C242.866 57.9483 240.24 55.3023 240.24 52.0308V52.0147H232.508C232.508 52.0308 232.508 52.0308 232.508 52.0308C232.508 55.3023 229.93 57.9483 226.773 57.9483C223.648 57.9483 221.038 55.3023 221.038 52.0308V52.0147H213.999C214.015 55.3504 215.223 58.4134 217.559 60.8189C220.039 63.4168 223.02 64.6677 226.725 64.6677C230.382 64.6677 233.458 63.3687 235.939 60.899C236.1 60.7387 236.245 60.5623 236.39 60.4019C236.519 60.5302 236.616 60.6745 236.745 60.8028C239.225 63.4008 242.206 64.6516 245.911 64.6516C249.567 64.6516 252.644 63.3527 255.125 60.883C255.286 60.7226 255.431 60.5462 255.576 60.3859C255.705 60.5142 255.802 60.6585 255.931 60.7868C258.411 63.3847 261.392 64.6356 265.097 64.6356C268.753 64.6356 271.83 63.3366 274.311 60.867C276.711 58.4775 277.936 55.5268 277.968 51.9827L270.912 52.0147Z" fill="#C78842"/>
</g>
<defs>
<clipPath id="clip0_22106_11217">
<rect width="235" height="42" fill="white" transform="translate(43 32.2095)"/>
</clipPath>
</defs>
</svg>
